<svg width="114" height="115" viewBox="0 0 114 115" fill="none" xmlns="http://www.w3.org/2000/svg">
<circle cx="57" cy="57.752" r="57" fill="white"/>
<path d="M57 50.1641C60.8145 50.1641 63.9629 53.3125 63.9629 57.127C63.9629 61.002 60.8145 64.0898 57 64.0898C53.125 64.0898 50.0371 61.002 50.0371 57.127C50.0371 53.3125 53.125 50.1641 57 50.1641ZM57 61.668C59.4824 61.668 61.4805 59.6699 61.4805 57.127C61.4805 54.6445 59.4824 52.6465 57 52.6465C54.457 52.6465 52.459 54.6445 52.459 57.127C52.459 59.6699 54.5176 61.668 57 61.668ZM65.8398 49.9219C65.8398 49.0137 65.1133 48.2871 64.2051 48.2871C63.2969 48.2871 62.5703 49.0137 62.5703 49.9219C62.5703 50.8301 63.2969 51.5566 64.2051 51.5566C65.1133 51.5566 65.8398 50.8301 65.8398 49.9219ZM70.4414 51.5566C70.5625 53.7969 70.5625 60.5176 70.4414 62.7578C70.3203 64.9375 69.8359 66.8145 68.2617 68.4492C66.6875 70.0234 64.75 70.5078 62.5703 70.6289C60.3301 70.75 53.6094 70.75 51.3691 70.6289C49.1895 70.5078 47.3125 70.0234 45.6777 68.4492C44.1035 66.8145 43.6191 64.9375 43.498 62.7578C43.377 60.5176 43.377 53.7969 43.498 51.5566C43.6191 49.377 44.1035 47.4395 45.6777 45.8652C47.3125 44.291 49.1895 43.8066 51.3691 43.6855C53.6094 43.5645 60.3301 43.5645 62.5703 43.6855C64.75 43.8066 66.6875 44.291 68.2617 45.8652C69.8359 47.4395 70.3203 49.377 70.4414 51.5566ZM67.5352 65.1191C68.2617 63.3633 68.0801 59.125 68.0801 57.127C68.0801 55.1895 68.2617 50.9512 67.5352 49.1348C67.0508 47.9844 66.1426 47.0156 64.9922 46.5918C63.1758 45.8652 58.9375 46.0469 57 46.0469C55.002 46.0469 50.7637 45.8652 49.0078 46.5918C47.7969 47.0762 46.8887 47.9844 46.4043 49.1348C45.6777 50.9512 45.8594 55.1895 45.8594 57.127C45.8594 59.125 45.6777 63.3633 46.4043 65.1191C46.8887 66.3301 47.7969 67.2383 49.0078 67.7227C50.7637 68.4492 55.002 68.2676 57 68.2676C58.9375 68.2676 63.1758 68.4492 64.9922 67.7227C66.1426 67.2383 67.1113 66.3301 67.5352 65.1191Z" fill="#CFCFCF"/>
</svg>
